<svg xmlns="http://www.w3.org/2000/svg" xmlns:xlink="http://www.w3.org/1999/xlink" width="140" zoomAndPan="magnify" viewBox="0 0 104.88 44.999999" height="60" preserveAspectRatio="xMidYMid meet" version="1.0"><defs><g/><clipPath id="id1"><path d="M 46 0.0273438 L 91 0.0273438 L 91 44.972656 L 46 44.972656 Z M 46 0.0273438 " clip-rule="nonzero"/></clipPath><clipPath id="id2"><path d="M 61.292969 -8.960938 L 99.472656 16.144531 L 74.367188 54.328125 L 36.183594 29.222656 Z M 61.292969 -8.960938 " clip-rule="nonzero"/></clipPath><clipPath id="id3"><path d="M 61.292969 -8.960938 L 99.472656 16.144531 L 74.367188 54.328125 L 36.183594 29.222656 Z M 61.292969 -8.960938 " clip-rule="nonzero"/></clipPath><clipPath id="id4"><path d="M 61 15 L 76 15 L 76 30 L 61 30 Z M 61 15 " clip-rule="nonzero"/></clipPath><clipPath id="id5"><path d="M 61.292969 -8.960938 L 99.472656 16.144531 L 74.367188 54.328125 L 36.183594 29.222656 Z M 61.292969 -8.960938 " clip-rule="nonzero"/></clipPath><clipPath id="id6"><path d="M 61.292969 -8.960938 L 99.472656 16.144531 L 74.367188 54.328125 L 36.183594 29.222656 Z M 61.292969 -8.960938 " clip-rule="nonzero"/></clipPath><clipPath id="id7"><path d="M 50 4 L 86 4 L 86 42 L 50 42 Z M 50 4 " clip-rule="nonzero"/></clipPath><clipPath id="id8"><path d="M 61.292969 -8.960938 L 99.472656 16.144531 L 74.367188 54.328125 L 36.183594 29.222656 Z M 61.292969 -8.960938 " clip-rule="nonzero"/></clipPath><clipPath id="id9"><path d="M 61.292969 -8.960938 L 99.472656 16.144531 L 74.367188 54.328125 L 36.183594 29.222656 Z M 61.292969 -8.960938 " clip-rule="nonzero"/></clipPath><clipPath id="id10"><path d="M 48 1 L 91 1 L 91 44 L 48 44 Z M 48 1 " clip-rule="nonzero"/></clipPath><clipPath id="id11"><path d="M 61.292969 -8.960938 L 99.472656 16.144531 L 74.367188 54.328125 L 36.183594 29.222656 Z M 61.292969 -8.960938 " clip-rule="nonzero"/></clipPath><clipPath id="id12"><path d="M 61.292969 -8.960938 L 99.472656 16.144531 L 74.367188 54.328125 L 36.183594 29.222656 Z M 61.292969 -8.960938 " clip-rule="nonzero"/></clipPath></defs><g clip-path="url(#id1)"><g clip-path="url(#id2)"><g clip-path="url(#id3)"><path fill="rgb(36.859131%, 9.01947%, 92.158508%)" d="M 87.242188 34.679688 C 82.207031 42.339844 73.191406 45.914062 64.300781 43.867188 C 55.3125 41.792969 47.5625 34.269531 46.546875 25.082031 C 45.535156 15.886719 50.980469 6.789062 59.316406 2.738281 C 67.617188 -1.296875 76.335938 0.925781 83.542969 6.632812 C 91.800781 13.164062 92.976562 25.957031 87.242188 34.679688 " fill-opacity="1" fill-rule="nonzero"/></g></g></g><g clip-path="url(#id4)"><g clip-path="url(#id5)"><g clip-path="url(#id6)"><path fill="rgb(100%, 100%, 100%)" d="M 68.121094 25.675781 C 66.839844 25.382812 65.738281 24.308594 65.59375 23.003906 C 65.449219 21.691406 66.222656 20.398438 67.410156 19.820312 C 68.59375 19.246094 69.832031 19.5625 70.859375 20.375 C 72.035156 21.304688 72.203125 23.128906 71.386719 24.367188 C 70.667969 25.460938 69.386719 25.96875 68.121094 25.675781 Z M 73.253906 17.78125 C 71.0625 16.046875 68.40625 15.371094 65.882812 16.597656 C 63.347656 17.828125 61.6875 20.597656 62 23.394531 C 62.304688 26.191406 64.664062 28.480469 67.398438 29.109375 C 70.105469 29.734375 72.847656 28.644531 74.378906 26.316406 C 76.125 23.660156 75.765625 19.769531 73.253906 17.78125 " fill-opacity="1" fill-rule="nonzero"/></g></g></g><g clip-path="url(#id7)"><g clip-path="url(#id8)"><g clip-path="url(#id9)"><path fill="rgb(100%, 100%, 100%)" d="M 68.289062 24.875 C 69.21875 25.085938 70.160156 24.714844 70.6875 23.914062 C 71.285156 23.003906 71.164062 21.664062 70.300781 20.980469 C 69.546875 20.386719 68.636719 20.152344 67.769531 20.574219 C 66.898438 21 66.328125 21.949219 66.433594 22.910156 C 66.539062 23.871094 67.347656 24.65625 68.289062 24.875 Z M 63.261719 30.519531 C 62.804688 30.179688 62.421875 29.785156 62.015625 29.394531 C 61.75 29.136719 61.628906 28.78125 61.316406 29.238281 C 63.964844 32.507812 68.574219 33.625 72.445312 31.960938 C 72.355469 31.378906 71.945312 31.714844 71.550781 31.847656 C 71.007812 32.03125 70.445312 32.160156 69.878906 32.238281 C 68.753906 32.390625 67.613281 32.328125 66.511719 32.058594 C 65.339844 31.769531 64.226562 31.238281 63.261719 30.519531 Z M 68.203125 14.09375 C 69.238281 14.03125 70.289062 14.144531 71.289062 14.433594 C 71.804688 14.582031 72.265625 14.824219 72.765625 15.003906 C 73.113281 15.132812 73.308594 15.378906 73.449219 14.886719 C 70.214844 13.046875 66.085938 13.308594 63.082031 15.53125 C 63.292969 16.074219 63.574219 15.6875 63.925781 15.46875 C 64.375 15.1875 64.847656 14.949219 65.335938 14.75 C 66.25 14.378906 67.222656 14.15625 68.203125 14.09375 Z M 68.617188 33.792969 C 67.875 33.777344 67.128906 33.6875 66.402344 33.519531 C 65.941406 33.414062 65.050781 32.832031 64.96875 33.535156 C 69.652344 35.253906 75.035156 33.601562 77.988281 29.5625 C 77.574219 29.023438 77.289062 29.792969 77.007812 30.113281 C 76.601562 30.574219 76.15625 31 75.675781 31.386719 C 74.730469 32.152344 73.664062 32.75 72.519531 33.160156 C 71.269531 33.609375 69.941406 33.820312 68.617188 33.792969 Z M 62.835938 13.914062 C 63.828125 13.238281 64.933594 12.726562 66.089844 12.410156 C 66.679688 12.25 67.28125 12.140625 67.886719 12.078125 C 68.320312 12.035156 68.878906 12.191406 68.71875 11.605469 C 64.308594 11.695312 60.238281 14.460938 58.511719 18.539062 C 59.039062 18.964844 59.136719 18.164062 59.339844 17.792969 C 59.601562 17.300781 59.902344 16.832031 60.234375 16.390625 C 60.957031 15.429688 61.839844 14.589844 62.835938 13.914062 Z M 69.253906 35.878906 C 67.730469 35.917969 66.203125 35.671875 64.765625 35.175781 C 63.953125 34.894531 63.175781 34.535156 62.4375 34.097656 C 62.023438 33.851562 61.238281 32.867188 60.941406 33.59375 C 65.539062 37.132812 72.082031 37.164062 76.757812 33.699219 C 76.507812 33.011719 75.695312 33.925781 75.296875 34.15625 C 74.683594 34.515625 74.039062 34.824219 73.371094 35.074219 C 72.054688 35.570312 70.65625 35.84375 69.253906 35.878906 Z M 69.421875 10.40625 C 70.09375 10.425781 70.757812 10.496094 71.417969 10.625 C 71.859375 10.707031 72.6875 11.222656 72.691406 10.492188 C 67.765625 9.0625 62.296875 10.726562 58.96875 14.660156 C 59.367188 15.265625 59.894531 14.257812 60.226562 13.941406 C 60.710938 13.476562 61.234375 13.050781 61.785156 12.671875 C 62.875 11.917969 64.082031 11.335938 65.347656 10.949219 C 66.664062 10.550781 68.046875 10.363281 69.421875 10.40625 Z M 62.789062 8.15625 C 65.492188 7.011719 68.488281 6.613281 71.386719 7.027344 C 73.085938 7.269531 74.75 7.78125 76.285156 8.539062 C 77.128906 8.957031 77.941406 9.449219 78.699219 10.011719 C 79.105469 10.3125 79.898438 11.410156 80.246094 10.730469 C 75.78125 6.679688 69.292969 5.382812 63.597656 7.390625 C 58.542969 9.167969 54.550781 13.355469 53.035156 18.507812 C 52.738281 19.53125 52.53125 20.582031 52.429688 21.640625 C 53.148438 21.90625 53.050781 20.222656 53.167969 19.707031 C 53.34375 18.914062 53.574219 18.132812 53.863281 17.375 C 54.398438 15.976562 55.125 14.65625 56.019531 13.457031 C 57.757812 11.128906 60.117188 9.285156 62.789062 8.15625 Z M 72.210938 39.53125 C 78.253906 38.3125 83.269531 33.726562 85.015625 27.792969 C 84.386719 27.398438 84.25 28.78125 84.066406 29.230469 C 83.785156 29.929688 83.453125 30.605469 83.074219 31.257812 C 82.289062 32.621094 81.304688 33.863281 80.160156 34.945312 C 77.941406 37.042969 75.144531 38.5 72.160156 39.109375 C 68.964844 39.761719 65.617188 39.417969 62.625 38.152344 C 60.882812 37.414062 59.273438 36.371094 57.894531 35.074219 C 57.25 34.46875 56.65625 33.8125 56.117188 33.109375 C 55.804688 32.699219 55.207031 31.1875 54.683594 31.738281 C 58.230469 37.730469 65.371094 40.914062 72.210938 39.53125 Z M 83.292969 34.726562 C 82.804688 35.332031 82.277344 35.90625 81.71875 36.445312 C 80.691406 37.429688 79.554688 38.292969 78.335938 39.015625 C 75.914062 40.453125 73.171875 41.320312 70.371094 41.539062 C 67.378906 41.773438 64.351562 41.257812 61.605469 40.066406 C 60.003906 39.371094 58.507812 38.445312 57.175781 37.324219 C 56.53125 36.785156 55.921875 36.199219 55.359375 35.570312 C 55.050781 35.230469 54.457031 34.046875 54.019531 34.617188 C 61.617188 44.648438 77.261719 44.230469 84.453125 33.882812 C 84 33.328125 83.585938 34.363281 83.292969 34.726562 Z M 51.941406 16.394531 C 51.765625 16.835938 51.589844 18.285156 50.972656 17.910156 C 52.746094 11.878906 57.503906 7.03125 63.488281 5.152344 C 69.460938 3.28125 76.121094 4.542969 80.957031 8.496094 C 80.660156 9.203125 79.691406 8.054688 79.300781 7.796875 C 78.585938 7.316406 77.839844 6.890625 77.0625 6.519531 C 75.535156 5.78125 73.898438 5.261719 72.226562 4.976562 C 69.363281 4.484375 66.390625 4.6875 63.609375 5.558594 C 60.828125 6.429688 58.261719 7.96875 56.175781 10.015625 C 54.953125 11.21875 53.894531 12.589844 53.046875 14.082031 C 52.625 14.824219 52.257812 15.597656 51.941406 16.394531 " fill-opacity="1" fill-rule="nonzero"/></g></g></g><g clip-path="url(#id10)"><g clip-path="url(#id11)"><g clip-path="url(#id12)"><path fill="rgb(100%, 100%, 100%)" d="M 51.503906 12.449219 C 51.492188 12.5 51.496094 12.558594 51.550781 12.609375 L 51.703125 12.605469 C 51.710938 12.601562 51.71875 12.59375 51.734375 12.585938 C 51.753906 12.574219 51.78125 12.5625 51.808594 12.539062 C 51.851562 12.644531 51.972656 12.707031 52.09375 12.679688 C 52.171875 12.660156 52.246094 12.609375 52.289062 12.539062 L 52.269531 12.390625 C 52.101562 12.238281 51.964844 12.304688 51.875 12.351562 L 51.871094 12.320312 C 51.796875 12.203125 51.574219 12.15625 51.492188 12.265625 C 51.453125 12.3125 51.449219 12.382812 51.503906 12.449219 Z M 51.410156 22.53125 C 51.421875 22.542969 51.433594 22.550781 51.445312 22.558594 C 51.519531 22.609375 51.585938 22.605469 51.628906 22.59375 C 51.703125 22.574219 51.765625 22.515625 51.820312 22.410156 L 51.785156 22.269531 C 51.773438 22.257812 51.757812 22.246094 51.746094 22.238281 C 51.6875 22.203125 51.605469 22.15625 51.515625 22.191406 C 51.417969 22.234375 51.390625 22.34375 51.371094 22.417969 Z M 54.769531 18.265625 L 54.777344 18.269531 C 54.800781 18.28125 54.855469 18.3125 54.917969 18.289062 C 54.945312 18.277344 54.984375 18.253906 55.007812 18.195312 L 54.964844 18.0625 C 54.984375 18.074219 54.992188 18.101562 54.992188 18.101562 C 55 18.070312 55.011719 18 54.957031 17.9375 L 54.777344 17.945312 C 54.746094 17.960938 54.683594 17.984375 54.644531 18.070312 L 54.6875 18.210938 Z M 48.941406 25.585938 L 49.09375 25.558594 C 49.144531 25.492188 49.148438 25.433594 49.140625 25.394531 C 49.128906 25.324219 49.082031 25.265625 48.980469 25.222656 L 48.839844 25.261719 L 48.785156 25.347656 L 48.816406 25.503906 Z M 50.828125 22.386719 L 50.976562 22.335938 C 50.980469 22.324219 50.980469 22.324219 51.003906 22.308594 C 51.039062 22.292969 51.085938 22.265625 51.125 22.199219 L 51.097656 22.058594 L 51.070312 22.035156 C 51.015625 22 50.96875 21.996094 50.933594 21.992188 C 50.914062 21.992188 50.910156 21.992188 50.898438 21.984375 L 50.738281 22.015625 L 50.683594 22.097656 L 50.707031 22.253906 C 50.714844 22.28125 50.734375 22.328125 50.792969 22.367188 Z M 66.753906 2.414062 L 66.753906 2.242188 C 66.746094 2.222656 66.734375 2.1875 66.703125 2.152344 L 66.535156 2.160156 C 66.515625 2.164062 66.480469 2.175781 66.449219 2.203125 L 66.453125 2.375 C 66.457031 2.398438 66.46875 2.429688 66.5 2.464844 L 66.667969 2.457031 C 66.6875 2.453125 66.722656 2.441406 66.753906 2.414062 Z M 52.992188 23.269531 L 53.167969 23.269531 C 53.210938 23.269531 53.328125 23.269531 53.378906 23.117188 L 53.367188 23.015625 C 53.277344 22.882812 53.082031 22.914062 52.996094 23.015625 C 52.929688 23.09375 52.925781 23.195312 52.992188 23.269531 Z M 64.292969 5.257812 L 64.375 5.132812 L 64.359375 5.066406 C 64.394531 5.039062 64.417969 5 64.429688 4.945312 L 64.304688 4.800781 C 64.296875 4.761719 64.28125 4.695312 64.222656 4.65625 C 64.152344 4.609375 64.066406 4.636719 64.039062 4.644531 L 64 4.839844 C 64.003906 4.847656 64.019531 4.859375 64.023438 4.863281 C 64.015625 4.851562 64.015625 4.820312 64.019531 4.808594 L 64.054688 4.96875 C 64.023438 4.984375 63.992188 5.015625 63.96875 5.070312 L 64.011719 5.210938 L 64.132812 5.289062 Z M 62.179688 8.035156 C 62.203125 8 62.214844 7.960938 62.214844 7.925781 C 62.21875 7.871094 62.195312 7.820312 62.148438 7.789062 L 62.117188 7.773438 L 62.039062 7.796875 C 62.054688 7.796875 62.070312 7.800781 62.085938 7.8125 L 61.910156 7.832031 L 61.855469 7.914062 L 61.847656 8.023438 C 61.863281 8.058594 61.886719 8.089844 61.917969 8.109375 C 62.003906 8.164062 62.117188 8.132812 62.179688 8.035156 Z M 52.617188 21.878906 C 52.6875 21.925781 52.796875 21.902344 52.851562 21.828125 C 52.898438 21.765625 52.914062 21.65625 52.800781 21.558594 L 52.640625 21.570312 C 52.574219 21.648438 52.542969 21.714844 52.554688 21.777344 Z M 62.390625 3.976562 C 62.425781 3.941406 62.460938 3.894531 62.457031 3.832031 L 62.398438 3.738281 C 62.367188 3.714844 62.328125 3.710938 62.289062 3.710938 C 62.265625 3.710938 62.246094 3.71875 62.234375 3.730469 C 62.175781 3.710938 62.113281 3.730469 62.070312 3.78125 L 62.074219 3.785156 L 62.070312 3.785156 L 62.152344 3.851562 C 62.132812 3.867188 62.121094 3.878906 62.117188 3.882812 L 62.113281 3.898438 L 62.070312 3.925781 C 62.082031 3.941406 62.101562 3.984375 62.109375 3.996094 L 62.113281 3.996094 L 62.109375 4 L 62.117188 4 L 62.148438 4.046875 L 62.199219 4.0625 L 62.230469 4.019531 L 62.285156 4.03125 C 62.296875 4.023438 62.332031 4.003906 62.34375 4 L 62.332031 3.960938 C 62.339844 3.953125 62.347656 3.949219 62.355469 3.941406 Z M 53.382812 12.574219 C 53.460938 12.625 53.640625 12.667969 53.714844 12.570312 C 53.726562 12.550781 53.789062 12.457031 53.667969 12.351562 L 53.585938 12.363281 C 53.484375 12.308594 53.410156 12.289062 53.347656 12.332031 L 53.300781 12.460938 C 53.308594 12.492188 53.328125 12.539062 53.382812 12.574219 Z M 55.316406 9.898438 C 55.367188 9.871094 55.421875 9.804688 55.410156 9.652344 L 55.292969 9.546875 C 55.113281 9.558594 55.066406 9.644531 55.050781 9.695312 C 55.03125 9.769531 55.066406 9.847656 55.132812 9.890625 C 55.191406 9.929688 55.261719 9.933594 55.316406 9.898438 Z M 58.15625 9.300781 C 58.234375 9.351562 58.355469 9.359375 58.417969 9.285156 C 58.453125 9.246094 58.492188 9.15625 58.367188 9.027344 L 58.25 9 C 58.210938 9.011719 58.097656 9.050781 58.085938 9.15625 C 58.078125 9.214844 58.105469 9.269531 58.15625 9.300781 Z M 56.652344 11.945312 C 56.675781 11.964844 56.699219 11.984375 56.722656 11.996094 C 56.769531 12.03125 56.820312 12.042969 56.867188 12.03125 C 56.898438 12.023438 56.9375 12.003906 56.96875 11.949219 L 56.949219 11.804688 C 56.949219 11.757812 56.9375 11.640625 56.792969 11.59375 L 56.664062 11.640625 C 56.648438 11.667969 56.628906 11.675781 56.589844 11.695312 L 56.609375 11.910156 C 56.625 11.917969 56.636719 11.933594 56.652344 11.945312 Z M 52.265625 17.230469 C 52.292969 17.25 52.324219 17.261719 52.359375 17.273438 L 52.484375 17.226562 L 52.597656 17.058594 L 52.5625 16.902344 L 52.4375 16.820312 L 52.289062 16.84375 C 52.226562 16.921875 52.164062 17.003906 52.179688 17.101562 C 52.183594 17.136719 52.203125 17.191406 52.265625 17.230469 Z M 71.410156 28.832031 C 71.40625 28.777344 71.363281 28.691406 71.234375 28.640625 L 71.117188 28.664062 C 71.046875 28.726562 70.992188 28.828125 71.128906 28.984375 C 71.128906 28.984375 71.125 28.980469 71.121094 28.96875 L 71.3125 29.039062 C 71.386719 28.96875 71.417969 28.902344 71.410156 28.832031 Z M 75.359375 21.488281 L 75.371094 21.496094 C 75.410156 21.523438 75.457031 21.53125 75.503906 21.519531 C 75.582031 21.496094 75.621094 21.421875 75.648438 21.359375 C 75.660156 21.339844 75.671875 21.3125 75.675781 21.308594 L 75.671875 21.121094 L 75.546875 21.039062 L 75.464844 21.019531 C 75.367188 21.039062 75.285156 21.148438 75.265625 21.246094 C 75.242188 21.34375 75.277344 21.433594 75.359375 21.488281 Z M 71.84375 28.222656 C 71.835938 28.179688 71.808594 28.117188 71.730469 28.0625 L 71.703125 28.046875 L 71.550781 28.085938 L 71.46875 28.210938 L 71.503906 28.367188 L 71.628906 28.449219 L 71.777344 28.425781 C 71.832031 28.355469 71.851562 28.289062 71.84375 28.222656 Z M 74.492188 21.511719 C 74.488281 21.425781 74.441406 21.339844 74.371094 21.292969 C 74.28125 21.234375 74.167969 21.246094 74.089844 21.332031 L 74.0625 21.449219 C 74.070312 21.464844 74.070312 21.484375 74.074219 21.507812 C 74.085938 21.578125 74.097656 21.679688 74.214844 21.753906 L 74.242188 21.773438 L 74.363281 21.761719 C 74.449219 21.695312 74.492188 21.609375 74.492188 21.511719 Z M 80.132812 17.210938 L 80.039062 17.183594 C 79.9375 17.203125 79.859375 17.277344 79.839844 17.371094 C 79.820312 17.460938 79.859375 17.542969 79.941406 17.597656 C 79.953125 17.605469 79.964844 17.617188 79.980469 17.621094 L 80.117188 17.59375 C 80.292969 17.382812 80.175781 17.246094 80.132812 17.210938 Z M 70.9375 21.273438 L 71.128906 21.25 C 71.179688 21.140625 71.199219 21.042969 71.214844 20.949219 L 71.21875 20.914062 L 71.171875 20.800781 L 71.046875 20.71875 L 70.878906 20.765625 C 70.792969 20.949219 70.8125 21.125 70.9375 21.273438 Z M 66.304688 29.117188 C 66.355469 29.152344 66.425781 29.148438 66.484375 29.113281 C 66.570312 29.0625 66.613281 28.949219 66.597656 28.820312 L 66.421875 28.738281 C 66.300781 28.824219 66.238281 28.910156 66.238281 28.996094 C 66.238281 29.046875 66.261719 29.089844 66.304688 29.117188 Z M 76.265625 13.574219 C 76.382812 13.652344 76.480469 13.566406 76.523438 13.523438 L 76.570312 13.316406 L 76.445312 13.234375 L 76.289062 13.265625 L 76.207031 13.390625 L 76.214844 13.53125 C 76.234375 13.546875 76.25 13.5625 76.265625 13.574219 Z M 69.976562 27.789062 C 70.132812 27.890625 70.265625 27.816406 70.34375 27.773438 L 70.339844 27.570312 C 70.253906 27.519531 70.152344 27.460938 70.042969 27.488281 C 69.984375 27.503906 69.9375 27.542969 69.902344 27.605469 L 69.921875 27.746094 C 69.941406 27.761719 69.957031 27.777344 69.976562 27.789062 Z M 79.5 12.90625 C 79.511719 12.84375 79.484375 12.78125 79.414062 12.726562 L 79.3125 12.707031 C 79.238281 12.726562 79 12.859375 78.957031 12.988281 C 78.941406 13.035156 78.949219 13.085938 78.976562 13.121094 L 79.15625 13.121094 C 79.171875 13.105469 79.234375 13.085938 79.273438 13.074219 C 79.371094 13.046875 79.476562 13.011719 79.5 12.90625 Z M 81.328125 17.058594 C 81.3125 17.085938 81.296875 17.09375 81.257812 17.113281 L 81.253906 17.320312 C 81.324219 17.351562 81.507812 17.4375 81.664062 17.316406 L 81.65625 17.132812 L 81.488281 17.023438 Z M 75.070312 16.734375 L 75.246094 16.714844 C 75.261719 16.695312 75.324219 16.65625 75.355469 16.636719 C 75.433594 16.589844 75.488281 16.554688 75.488281 16.480469 L 75.4375 16.378906 C 75.398438 16.355469 75.355469 16.355469 75.316406 16.359375 L 75.117188 16.410156 C 75.109375 16.421875 75.097656 16.4375 75.089844 16.453125 C 75.050781 16.507812 74.964844 16.632812 75.070312 16.734375 Z M 78.59375 29.03125 L 78.574219 28.847656 C 78.550781 28.832031 78.539062 28.8125 78.523438 28.777344 L 78.324219 28.761719 L 78.269531 28.84375 L 78.257812 28.941406 C 78.269531 28.980469 78.292969 29.039062 78.347656 29.074219 C 78.390625 29.101562 78.476562 29.132812 78.59375 29.03125 Z M 87.492188 12.097656 L 87.351562 12.046875 C 87.175781 12.203125 87.261719 12.347656 87.300781 12.410156 C 87.308594 12.421875 87.320312 12.445312 87.320312 12.453125 L 87.308594 12.484375 C 87.269531 12.585938 87.195312 12.777344 87.382812 12.902344 L 87.546875 12.882812 C 87.550781 12.875 87.558594 12.867188 87.5625 12.863281 L 87.679688 12.859375 C 87.730469 12.800781 87.738281 12.742188 87.734375 12.691406 C 87.765625 12.683594 87.796875 12.675781 87.828125 12.671875 L 87.847656 12.585938 C 87.746094 12.402344 87.644531 12.222656 87.539062 12.039062 L 87.53125 12.042969 C 87.515625 12.070312 87.503906 12.089844 87.492188 12.097656 Z M 72.523438 38.035156 L 72.675781 38.03125 C 72.683594 38.023438 72.691406 38.019531 72.707031 38.011719 C 72.75 37.988281 72.8125 37.953125 72.855469 37.847656 L 72.8125 37.710938 L 72.6875 37.628906 L 72.539062 37.652344 C 72.367188 37.855469 72.46875 37.988281 72.523438 38.035156 Z M 79.636719 28.015625 L 79.808594 28.011719 C 79.851562 28.011719 79.96875 28.011719 80.019531 27.859375 L 79.984375 27.734375 C 79.839844 27.609375 79.699219 27.613281 79.605469 27.722656 L 79.625 27.890625 C 79.605469 27.878906 79.597656 27.851562 79.597656 27.847656 C 79.589844 27.882812 79.578125 27.953125 79.636719 28.015625 Z M 71.285156 41.628906 L 71.195312 41.628906 C 71.128906 41.660156 71.089844 41.714844 71.082031 41.777344 C 71.078125 41.847656 71.117188 41.917969 71.183594 41.964844 C 71.234375 42 71.292969 42.007812 71.347656 41.992188 C 71.390625 41.976562 71.425781 41.945312 71.445312 41.898438 L 71.40625 41.761719 C 71.398438 41.734375 71.378906 41.6875 71.324219 41.648438 Z M 87.753906 16.558594 C 87.742188 16.550781 87.730469 16.546875 87.71875 16.550781 L 87.523438 16.496094 C 87.46875 16.554688 87.445312 16.621094 87.453125 16.6875 C 87.464844 16.785156 87.542969 16.847656 87.613281 16.894531 L 87.714844 16.957031 L 87.871094 16.917969 C 87.960938 16.765625 87.902344 16.636719 87.753906 16.558594 Z M 67.609375 43.207031 C 67.511719 43.230469 67.4375 43.296875 67.421875 43.378906 C 67.40625 43.449219 67.441406 43.523438 67.511719 43.566406 C 67.535156 43.582031 67.5625 43.597656 67.597656 43.609375 L 67.726562 43.566406 C 67.800781 43.460938 67.800781 43.351562 67.726562 43.25 Z M 85.199219 16.21875 L 85.257812 16.175781 C 85.429688 15.953125 85.277344 15.773438 85.226562 15.714844 L 85.125 15.675781 C 85.023438 15.691406 84.953125 15.765625 84.929688 15.867188 C 84.90625 15.976562 84.9375 16.125 85.039062 16.191406 C 85.085938 16.222656 85.144531 16.230469 85.199219 16.21875 Z M 78.308594 23.605469 L 78.390625 23.597656 C 78.386719 23.59375 78.378906 23.589844 78.371094 23.585938 L 78.554688 23.5625 C 78.636719 23.410156 78.578125 23.328125 78.515625 23.289062 C 78.5 23.277344 78.484375 23.269531 78.46875 23.261719 L 78.324219 23.320312 C 78.320312 23.332031 78.3125 23.339844 78.304688 23.351562 C 78.28125 23.394531 78.207031 23.515625 78.308594 23.605469 Z M 68.890625 39.617188 L 68.890625 39.453125 C 68.914062 39.476562 68.917969 39.523438 68.914062 39.53125 C 68.996094 39.429688 69 39.332031 68.925781 39.242188 L 68.871094 39.238281 C 68.855469 39.210938 68.824219 39.164062 68.761719 39.128906 L 68.625 39.160156 C 68.511719 39.296875 68.535156 39.421875 68.550781 39.503906 C 68.554688 39.527344 68.558594 39.546875 68.558594 39.570312 L 68.730469 39.617188 L 68.765625 39.625 C 68.753906 39.648438 68.726562 39.65625 68.722656 39.65625 C 68.753906 39.664062 68.828125 39.675781 68.890625 39.617188 Z M 78.066406 25.929688 C 78.035156 26.023438 78.039062 26.128906 78.15625 26.207031 L 78.328125 26.171875 C 78.386719 26.074219 78.511719 25.867188 78.300781 25.730469 C 78.300781 25.730469 78.300781 25.726562 78.300781 25.726562 L 78.144531 25.773438 C 78.140625 25.777344 78.136719 25.78125 78.132812 25.789062 C 78.132812 25.785156 78.132812 25.78125 78.132812 25.777344 C 78.125 25.734375 78.101562 25.699219 78.066406 25.675781 C 77.988281 25.628906 77.878906 25.644531 77.847656 25.648438 C 77.8125 25.65625 77.710938 25.675781 77.691406 25.773438 L 77.753906 25.910156 C 77.8125 25.949219 77.972656 25.992188 78.066406 25.929688 Z M 64.902344 40.640625 C 64.929688 40.660156 64.949219 40.679688 64.972656 40.691406 C 65.066406 40.753906 65.210938 40.800781 65.378906 40.6875 L 65.386719 40.507812 C 65.382812 40.503906 65.378906 40.5 65.375 40.496094 C 65.398438 40.460938 65.433594 40.398438 65.40625 40.308594 L 65.25 40.242188 C 65.222656 40.253906 65.203125 40.261719 65.1875 40.265625 C 65.113281 40.292969 65.074219 40.320312 65.042969 40.386719 C 65.023438 40.386719 65.003906 40.386719 64.984375 40.394531 C 64.933594 40.414062 64.898438 40.453125 64.875 40.515625 Z M 75.296875 28.527344 C 75.351562 28.5625 75.402344 28.566406 75.433594 28.570312 C 75.457031 28.570312 75.460938 28.566406 75.46875 28.578125 L 75.625 28.558594 C 75.679688 28.496094 75.703125 28.429688 75.691406 28.363281 C 75.679688 28.277344 75.621094 28.207031 75.507812 28.148438 L 75.359375 28.191406 L 75.25 28.355469 L 75.273438 28.507812 Z M 69.753906 20.910156 C 69.789062 20.894531 69.859375 20.871094 69.878906 20.792969 C 69.894531 20.714844 69.835938 20.652344 69.816406 20.632812 L 69.679688 20.617188 C 69.667969 20.621094 69.648438 20.628906 69.628906 20.636719 C 69.578125 20.652344 69.496094 20.679688 69.476562 20.765625 C 69.453125 20.855469 69.515625 20.929688 69.542969 20.957031 L 69.738281 20.894531 C 69.738281 20.90625 69.730469 20.917969 69.722656 20.921875 C 69.726562 20.917969 69.742188 20.914062 69.753906 20.910156 Z M 69.207031 7.695312 L 69.070312 7.738281 L 69.015625 7.824219 L 69.046875 7.980469 L 69.167969 8.0625 L 69.320312 8.035156 C 69.375 7.96875 69.378906 7.910156 69.371094 7.871094 C 69.363281 7.824219 69.332031 7.75 69.207031 7.695312 Z M 64.671875 13.769531 L 64.535156 13.8125 L 64.480469 13.898438 L 64.503906 14.046875 C 64.507812 14.066406 64.519531 14.101562 64.546875 14.136719 L 64.742188 14.09375 C 64.773438 14.042969 64.867188 13.890625 64.722656 13.796875 C 64.707031 13.785156 64.691406 13.777344 64.671875 13.769531 Z M 70.855469 5.835938 L 70.867188 6 C 70.886719 6.015625 70.902344 6.027344 70.917969 6.039062 C 71.042969 6.117188 71.164062 6.109375 71.25 6.011719 L 71.238281 5.851562 C 71.09375 5.730469 70.953125 5.726562 70.855469 5.835938 Z M 58.652344 25.425781 C 58.667969 25.449219 58.6875 25.46875 58.710938 25.484375 C 58.804688 25.546875 58.949219 25.523438 59.015625 25.4375 C 59.070312 25.367188 59.0625 25.273438 58.992188 25.207031 L 58.824219 25.222656 C 58.835938 25.207031 58.855469 25.199219 58.855469 25.199219 C 58.75 25.183594 58.675781 25.226562 58.640625 25.324219 Z M 57.113281 28.5625 L 57.25 28.5625 C 57.308594 28.53125 57.425781 28.472656 57.433594 28.363281 C 57.4375 28.328125 57.433594 28.265625 57.359375 28.210938 L 57.222656 28.210938 C 57.164062 28.242188 57.050781 28.300781 57.039062 28.410156 C 57.035156 28.445312 57.042969 28.507812 57.113281 28.5625 Z M 53.03125 26.144531 C 53.011719 26.148438 52.976562 26.160156 52.945312 26.191406 L 52.953125 26.367188 C 52.960938 26.394531 52.980469 26.445312 53.035156 26.484375 L 53.070312 26.503906 L 53.210938 26.464844 C 53.261719 26.390625 53.304688 26.277344 53.210938 26.148438 Z M 51.652344 26.769531 L 51.691406 26.800781 C 51.789062 26.863281 51.953125 26.875 52.046875 26.785156 C 52.09375 26.738281 52.128906 26.648438 52.066406 26.546875 L 52.023438 26.542969 C 52.019531 26.492188 52.007812 26.425781 51.945312 26.386719 L 51.898438 26.367188 L 51.839844 26.371094 C 51.640625 26.429688 51.597656 26.496094 51.621094 26.703125 Z M 70.84375 2.773438 L 70.878906 2.949219 C 70.890625 2.953125 70.898438 2.960938 70.910156 2.964844 L 70.964844 2.882812 L 70.941406 2.988281 C 70.980469 3.011719 71.101562 3.09375 71.203125 2.996094 L 71.234375 2.890625 C 71.234375 2.882812 71.230469 2.875 71.230469 2.867188 C 71.257812 2.851562 71.289062 2.828125 71.316406 2.78125 C 71.347656 2.734375 71.375 2.675781 71.382812 2.625 C 71.40625 2.496094 71.339844 2.433594 71.308594 2.410156 L 71.246094 2.386719 L 71.117188 2.449219 C 71.070312 2.542969 71.042969 2.625 71.03125 2.691406 C 70.964844 2.683594 70.894531 2.710938 70.84375 2.773438 Z M 50.453125 34.277344 C 50.566406 34.171875 50.53125 34.066406 50.511719 34.015625 C 50.652344 33.929688 50.929688 33.683594 50.96875 33.449219 C 50.984375 33.347656 50.953125 33.257812 50.882812 33.191406 L 50.785156 33.21875 C 50.746094 33.148438 50.648438 33.050781 50.425781 32.90625 C 50.328125 32.839844 50.214844 32.777344 50.125 32.839844 L 50.082031 32.941406 C 50.085938 33 50.058594 33.046875 50.011719 33.121094 C 49.972656 33.1875 49.929688 33.257812 49.917969 33.347656 C 49.90625 33.414062 49.933594 33.480469 49.957031 33.535156 C 49.96875 33.5625 49.984375 33.605469 49.972656 33.628906 L 49.949219 33.785156 C 49.957031 33.800781 49.96875 33.816406 49.980469 33.832031 C 50.035156 33.878906 50.09375 33.898438 50.140625 33.898438 C 50.128906 33.949219 50.125 34.003906 50.136719 34.058594 C 50.1875 34.128906 50.242188 34.203125 50.292969 34.273438 C 50.300781 34.28125 50.3125 34.285156 50.324219 34.292969 Z M 62.875 13.121094 C 62.816406 13.140625 62.765625 13.183594 62.726562 13.21875 C 62.699219 13.242188 62.671875 13.265625 62.65625 13.273438 L 62.640625 13.484375 C 62.722656 13.519531 62.753906 13.570312 62.765625 13.601562 L 62.957031 13.632812 C 62.976562 13.609375 62.980469 13.609375 62.992188 13.609375 L 63.097656 13.550781 C 63.121094 13.519531 63.125 13.488281 63.117188 13.457031 C 63.15625 13.40625 63.152344 13.339844 63.148438 13.300781 L 63.097656 13.214844 L 62.976562 13.132812 Z M 73.808594 12.253906 L 73.894531 12.308594 L 74.003906 12.316406 C 74.070312 12.285156 74.109375 12.230469 74.113281 12.167969 C 74.125 12.042969 73.96875 11.917969 73.851562 11.953125 C 73.804688 11.96875 73.773438 12 73.753906 12.046875 L 73.773438 12.117188 C 73.777344 12.097656 73.789062 12.082031 73.792969 12.078125 Z M 62.828125 27.566406 L 62.820312 27.675781 C 62.835938 27.714844 62.859375 27.742188 62.890625 27.761719 C 62.976562 27.816406 63.089844 27.785156 63.152344 27.683594 C 63.175781 27.652344 63.1875 27.613281 63.191406 27.578125 C 63.191406 27.519531 63.167969 27.472656 63.121094 27.441406 L 63.089844 27.425781 L 63.015625 27.449219 C 63.03125 27.449219 63.042969 27.453125 63.058594 27.464844 L 62.886719 27.484375 Z M 80.507812 6.28125 C 80.453125 6.289062 80.40625 6.316406 80.367188 6.339844 C 80.351562 6.351562 80.324219 6.367188 80.316406 6.367188 L 80.285156 6.34375 L 80.09375 6.414062 C 80.089844 6.425781 80.066406 6.445312 80.039062 6.460938 C 79.996094 6.484375 79.9375 6.523438 79.933594 6.597656 C 79.929688 6.632812 79.941406 6.683594 80 6.726562 L 80.171875 6.679688 C 80.167969 6.695312 80.140625 6.710938 80.125 6.707031 C 80.132812 6.707031 80.152344 6.714844 80.164062 6.71875 C 80.214844 6.730469 80.28125 6.75 80.351562 6.726562 C 80.398438 6.710938 80.429688 6.675781 80.449219 6.628906 C 80.515625 6.644531 80.5625 6.609375 80.582031 6.59375 C 80.617188 6.566406 80.636719 6.523438 80.644531 6.484375 C 80.644531 6.492188 80.644531 6.496094 80.648438 6.5 L 80.832031 6.578125 C 80.820312 6.585938 80.796875 6.585938 80.796875 6.589844 L 80.960938 6.570312 C 80.980469 6.546875 80.992188 6.523438 81.003906 6.5 L 81.140625 6.476562 C 81.21875 6.292969 81.148438 6.210938 81.074219 6.152344 C 81.042969 6.125 81.019531 6.105469 81.003906 6.058594 L 80.800781 6.039062 C 80.738281 6.140625 80.667969 6.269531 80.648438 6.398438 C 80.640625 6.355469 80.613281 6.316406 80.574219 6.292969 Z M 75.585938 12.660156 L 75.542969 12.519531 L 75.417969 12.4375 L 75.261719 12.46875 L 75.175781 12.597656 L 75.210938 12.753906 L 75.292969 12.808594 L 75.449219 12.78125 C 75.480469 12.769531 75.546875 12.746094 75.585938 12.660156 Z M 73.6875 15.109375 L 73.820312 15.070312 C 73.898438 14.964844 73.898438 14.851562 73.820312 14.753906 L 73.644531 14.75 C 73.625 14.753906 73.585938 14.765625 73.554688 14.796875 L 73.5625 14.972656 C 73.574219 15 73.589844 15.050781 73.648438 15.085938 Z M 68.609375 16.566406 L 68.640625 16.589844 C 68.753906 16.648438 68.929688 16.550781 68.984375 16.457031 C 69.039062 16.363281 69.011719 16.261719 68.917969 16.199219 L 68.882812 16.179688 L 68.734375 16.238281 C 68.726562 16.242188 68.707031 16.253906 68.691406 16.261719 C 68.644531 16.289062 68.574219 16.328125 68.558594 16.410156 C 68.550781 16.460938 68.566406 16.515625 68.609375 16.566406 Z M 69.90625 13.808594 L 69.964844 13.980469 L 70 14.003906 C 70.015625 14.015625 70.03125 14.027344 70.042969 14.039062 C 70.066406 14.054688 70.140625 14.101562 70.222656 14.070312 C 70.277344 14.050781 70.3125 14 70.332031 13.925781 L 70.285156 13.800781 L 70.121094 13.691406 L 69.960938 13.726562 Z M 88.6875 21.792969 L 88.863281 21.757812 C 88.871094 21.742188 88.882812 21.726562 88.894531 21.710938 C 88.902344 21.703125 88.910156 21.691406 88.917969 21.679688 C 88.917969 21.6875 88.921875 21.695312 88.921875 21.699219 L 88.984375 21.800781 C 89.054688 21.847656 89.160156 21.828125 89.21875 21.753906 C 89.265625 21.691406 89.28125 21.582031 89.167969 21.480469 L 89.007812 21.492188 C 88.996094 21.507812 88.984375 21.523438 88.972656 21.539062 C 88.972656 21.53125 88.972656 21.523438 88.96875 21.515625 C 88.960938 21.472656 88.921875 21.402344 88.816406 21.375 L 88.703125 21.414062 C 88.53125 21.621094 88.636719 21.75 88.6875 21.792969 Z M 89.691406 20.605469 C 89.691406 20.570312 89.679688 20.5 89.597656 20.441406 L 89.542969 20.421875 C 89.453125 20.414062 89.386719 20.464844 89.332031 20.507812 C 89.328125 20.507812 89.324219 20.503906 89.324219 20.5 L 89.164062 20.527344 C 89.097656 20.617188 89.101562 20.699219 89.101562 20.753906 C 89.101562 20.785156 89.101562 20.800781 89.09375 20.816406 L 89.109375 20.921875 C 89.125 20.945312 89.148438 20.96875 89.175781 20.988281 C 89.269531 21.050781 89.421875 21.0625 89.488281 20.976562 C 89.515625 20.941406 89.527344 20.894531 89.507812 20.84375 C 89.597656 20.785156 89.6875 20.710938 89.691406 20.605469 Z M 82.050781 33.886719 C 81.964844 33.980469 81.925781 34.078125 81.9375 34.175781 C 81.953125 34.316406 82.070312 34.414062 82.15625 34.472656 L 82.238281 34.492188 C 82.410156 34.460938 82.554688 34.402344 82.683594 34.316406 L 82.71875 34.164062 C 82.671875 34.089844 82.597656 34.042969 82.527344 34.03125 C 82.523438 34.003906 82.511719 33.972656 82.484375 33.945312 L 82.3125 33.941406 C 82.328125 33.925781 82.355469 33.917969 82.367188 33.921875 C 82.359375 33.921875 82.335938 33.90625 82.324219 33.898438 C 82.265625 33.863281 82.164062 33.800781 82.050781 33.886719 Z M 83.898438 33.480469 L 83.878906 33.292969 C 83.851562 33.277344 83.84375 33.261719 83.828125 33.222656 L 83.628906 33.207031 L 83.574219 33.289062 L 83.5625 33.390625 C 83.574219 33.429688 83.601562 33.488281 83.652344 33.523438 C 83.695312 33.550781 83.78125 33.582031 83.898438 33.480469 Z M 81.917969 30.050781 L 82.03125 30.09375 C 82.128906 30.074219 82.214844 29.988281 82.238281 29.878906 C 82.261719 29.78125 82.222656 29.6875 82.121094 29.621094 L 82.042969 29.605469 C 81.957031 29.625 81.890625 29.671875 81.863281 29.75 C 81.820312 29.859375 81.867188 29.980469 81.917969 30.050781 Z M 77.425781 35.019531 C 77.441406 35.035156 77.457031 35.046875 77.472656 35.054688 C 77.535156 35.097656 77.589844 35.105469 77.632812 35.113281 C 77.683594 35.121094 77.703125 35.128906 77.738281 35.164062 L 77.914062 35.144531 C 78.035156 34.953125 77.953125 34.863281 77.875 34.832031 C 77.921875 34.695312 77.84375 34.609375 77.808594 34.582031 L 77.648438 34.597656 C 77.617188 34.636719 77.585938 34.652344 77.554688 34.671875 C 77.476562 34.714844 77.40625 34.765625 77.386719 34.921875 Z M 79.15625 33.582031 L 79.328125 33.539062 C 79.402344 33.382812 79.371094 33.238281 79.246094 33.152344 C 79.15625 33.097656 79.039062 33.078125 78.957031 33.074219 L 78.875 33.101562 C 78.773438 33.1875 78.777344 33.273438 78.769531 33.34375 L 78.789062 33.519531 L 78.792969 33.519531 C 78.894531 33.585938 78.984375 33.574219 79.046875 33.5625 C 79.097656 33.554688 79.113281 33.566406 79.15625 33.582031 Z M 81.882812 26.957031 C 81.941406 26.996094 82.011719 27.003906 82.066406 26.980469 C 82.117188 26.957031 82.152344 26.910156 82.164062 26.851562 C 82.179688 26.773438 82.125 26.699219 82.066406 26.660156 C 81.996094 26.613281 81.914062 26.613281 81.855469 26.664062 C 81.808594 26.703125 81.789062 26.753906 81.792969 26.808594 C 81.792969 26.867188 81.828125 26.921875 81.882812 26.957031 Z M 77.457031 33.800781 L 77.457031 33.863281 C 77.472656 33.933594 77.515625 34 77.582031 34.042969 C 77.644531 34.085938 77.722656 34.101562 77.796875 34.085938 L 77.863281 34.042969 C 77.976562 33.898438 77.910156 33.769531 77.863281 33.675781 L 77.800781 33.667969 C 77.800781 33.664062 77.800781 33.664062 77.800781 33.660156 C 77.804688 33.507812 77.566406 33.351562 77.429688 33.414062 C 77.371094 33.441406 77.335938 33.496094 77.328125 33.5625 L 77.398438 33.683594 L 77.460938 33.703125 C 77.484375 33.710938 77.492188 33.714844 77.5 33.722656 C 77.484375 33.742188 77.46875 33.769531 77.457031 33.800781 Z M 87.058594 29.539062 C 87.125 29.523438 87.179688 29.492188 87.210938 29.441406 L 87.179688 29.285156 L 86.972656 29.148438 L 86.828125 29.164062 C 86.761719 29.234375 86.730469 29.304688 86.738281 29.371094 C 86.742188 29.425781 86.773438 29.472656 86.820312 29.503906 C 86.890625 29.550781 86.988281 29.554688 87.058594 29.539062 Z M 84.386719 26.027344 L 84.496094 25.863281 L 84.464844 25.703125 L 84.339844 25.621094 L 84.191406 25.644531 C 84.128906 25.722656 84.066406 25.804688 84.078125 25.902344 C 84.085938 25.9375 84.105469 25.992188 84.167969 26.035156 C 84.195312 26.050781 84.222656 26.0625 84.261719 26.074219 Z M 83.007812 37.730469 C 83 37.804688 82.992188 37.902344 83.074219 37.957031 C 83.125 37.988281 83.1875 37.988281 83.261719 37.957031 L 83.320312 37.808594 C 83.316406 37.796875 83.320312 37.761719 83.320312 37.742188 C 83.328125 37.660156 83.339844 37.546875 83.25 37.488281 C 83.195312 37.453125 83.128906 37.453125 83.046875 37.484375 L 83.03125 37.6875 C 83.015625 37.675781 83.011719 37.664062 83.007812 37.660156 C 83.011719 37.671875 83.007812 37.710938 83.007812 37.730469 Z M 84.714844 35.222656 L 84.628906 35.203125 C 84.519531 35.222656 84.421875 35.316406 84.402344 35.425781 C 84.382812 35.519531 84.417969 35.605469 84.496094 35.65625 C 84.511719 35.667969 84.527344 35.675781 84.546875 35.683594 L 84.683594 35.644531 C 84.746094 35.558594 84.894531 35.359375 84.714844 35.222656 Z M 85.78125 32.566406 C 85.714844 32.644531 85.6875 32.710938 85.695312 32.773438 L 85.757812 32.875 C 85.832031 32.921875 85.933594 32.898438 85.992188 32.824219 C 86.039062 32.761719 86.058594 32.652344 85.945312 32.554688 Z M 83.339844 38.457031 L 83.339844 38.605469 C 83.328125 38.59375 83.328125 38.570312 83.328125 38.566406 L 83.339844 38.730469 C 83.347656 38.734375 83.355469 38.738281 83.363281 38.746094 C 83.457031 38.660156 83.554688 38.574219 83.648438 38.484375 C 83.628906 38.460938 83.609375 38.445312 83.585938 38.429688 C 83.5 38.371094 83.402344 38.382812 83.339844 38.457031 Z M 61.277344 32.851562 C 61.332031 32.886719 61.394531 32.898438 61.453125 32.878906 C 61.5 32.867188 61.5625 32.832031 61.605469 32.738281 L 61.578125 32.605469 C 61.433594 32.480469 61.292969 32.480469 61.195312 32.589844 L 61.171875 32.683594 C 61.179688 32.753906 61.222656 32.816406 61.277344 32.851562 Z M 79.824219 18.152344 L 79.691406 18.195312 L 79.632812 18.277344 L 79.65625 18.425781 C 79.660156 18.445312 79.671875 18.480469 79.703125 18.515625 L 79.898438 18.46875 C 79.988281 18.316406 79.960938 18.199219 79.824219 18.152344 Z M 78.621094 12.289062 C 78.609375 12.328125 78.574219 12.445312 78.683594 12.519531 L 78.753906 12.546875 C 78.859375 12.550781 78.921875 12.488281 78.941406 12.429688 C 78.976562 12.320312 78.910156 12.179688 78.828125 12.128906 C 78.761719 12.082031 78.683594 12.09375 78.632812 12.148438 L 78.648438 12.316406 C 78.632812 12.304688 78.625 12.28125 78.621094 12.289062 Z M 80.820312 18.390625 C 80.832031 18.339844 80.820312 18.292969 80.789062 18.25 L 80.734375 18.242188 C 80.738281 18.175781 80.738281 18.085938 80.660156 18.035156 L 80.625 18.015625 L 80.519531 18.03125 C 80.476562 18.0625 80.425781 18.078125 80.367188 18.09375 C 80.28125 18.117188 80.171875 18.144531 80.078125 18.242188 L 80.144531 18.433594 C 80.320312 18.453125 80.304688 18.445312 80.390625 18.597656 L 80.574219 18.617188 C 80.585938 18.605469 80.617188 18.589844 80.636719 18.578125 C 80.710938 18.535156 80.800781 18.484375 80.820312 18.390625 Z M 71.457031 12.222656 C 71.507812 12.191406 71.53125 12.132812 71.519531 12.074219 C 71.5 11.976562 71.40625 11.921875 71.230469 11.945312 C 71.199219 11.953125 71.09375 11.972656 71.078125 12.066406 L 71.140625 12.207031 C 71.203125 12.246094 71.363281 12.285156 71.457031 12.222656 Z M 65.089844 26.671875 C 65.085938 26.679688 65.078125 26.691406 65.074219 26.699219 C 65.046875 26.742188 64.96875 26.867188 65.074219 26.957031 L 65.257812 26.945312 C 65.292969 26.941406 65.34375 26.929688 65.390625 26.886719 L 65.378906 26.707031 L 65.253906 26.625 Z M 75.867188 4.15625 C 75.882812 4.128906 75.910156 4.105469 75.9375 4.082031 C 75.980469 4.050781 76.039062 4.003906 76.046875 3.921875 C 76.054688 3.839844 75.992188 3.773438 75.972656 3.75 L 75.871094 3.714844 C 75.761719 3.734375 75.644531 3.859375 75.617188 3.980469 C 75.597656 4.070312 75.628906 4.152344 75.703125 4.203125 Z M 69.414062 13.066406 C 69.484375 13.097656 69.667969 13.179688 69.769531 12.980469 L 69.738281 12.84375 C 69.640625 12.757812 69.554688 12.734375 69.472656 12.753906 C 69.40625 12.773438 69.355469 12.820312 69.316406 12.894531 L 69.375 13.050781 Z M 77.457031 17.488281 C 77.53125 17.476562 77.605469 17.46875 77.679688 17.457031 C 77.757812 17.449219 77.835938 17.441406 77.914062 17.429688 L 77.953125 17.21875 C 77.824219 17.140625 77.738281 17.109375 77.582031 17.121094 L 77.589844 17.1875 C 77.582031 17.1875 77.574219 17.1875 77.570312 17.183594 C 77.488281 17.167969 77.375 17.144531 77.316406 17.234375 C 77.28125 17.292969 77.289062 17.363281 77.351562 17.445312 Z M 70.84375 17.554688 L 70.90625 17.714844 L 70.980469 17.742188 C 71.109375 17.792969 71.246094 17.84375 71.382812 17.8125 L 71.472656 17.714844 C 71.476562 17.695312 71.492188 17.65625 71.507812 17.625 C 71.542969 17.550781 71.589844 17.449219 71.542969 17.347656 L 71.371094 17.304688 C 71.308594 17.355469 71.230469 17.417969 71.195312 17.503906 C 71.132812 17.464844 71.054688 17.425781 70.972656 17.449219 C 70.933594 17.457031 70.882812 17.484375 70.84375 17.554688 Z M 81.949219 20 C 82.054688 20.070312 82.207031 20.015625 82.273438 19.925781 C 82.335938 19.847656 82.328125 19.75 82.257812 19.691406 L 82.113281 19.683594 C 82.089844 19.703125 82.0625 19.714844 82.035156 19.730469 C 82 19.75 81.960938 19.769531 81.921875 19.796875 L 81.902344 19.957031 Z M 82.296875 10.207031 C 82.367188 10.253906 82.472656 10.230469 82.53125 10.15625 C 82.578125 10.09375 82.59375 9.988281 82.480469 9.886719 L 82.320312 9.898438 C 82.253906 9.976562 82.222656 10.042969 82.234375 10.105469 Z M 75.0625 22.945312 C 74.96875 22.886719 74.859375 22.902344 74.78125 22.992188 L 74.757812 23.089844 C 74.773438 23.160156 74.8125 23.21875 74.867188 23.253906 C 74.960938 23.316406 75.074219 23.296875 75.148438 23.207031 L 75.171875 23.109375 C 75.160156 23.042969 75.117188 22.984375 75.0625 22.945312 Z M 81.539062 18.984375 C 81.550781 19.03125 81.5625 19.078125 81.578125 19.125 L 81.769531 19.160156 C 81.753906 19.179688 81.722656 19.183594 81.730469 19.191406 C 81.742188 19.199219 81.753906 19.207031 81.765625 19.214844 L 81.925781 19.191406 C 81.960938 19.144531 82 19.125 82.054688 19.101562 C 82.121094 19.074219 82.203125 19.035156 82.273438 18.9375 L 82.289062 18.902344 C 82.324219 18.78125 82.21875 18.710938 82.164062 18.671875 C 82.160156 18.671875 82.15625 18.667969 82.152344 18.667969 L 82.15625 18.660156 C 82.21875 18.539062 82.148438 18.476562 82.117188 18.453125 L 82.082031 18.433594 L 81.945312 18.480469 C 81.917969 18.523438 81.902344 18.527344 81.785156 18.5 C 81.679688 18.472656 81.519531 18.4375 81.398438 18.589844 L 81.421875 18.75 C 81.503906 18.8125 81.519531 18.882812 81.539062 18.984375 Z M 79.171875 13.800781 L 79.328125 13.769531 L 79.414062 13.640625 L 79.378906 13.484375 L 79.257812 13.402344 L 79.097656 13.4375 L 79.015625 13.5625 L 79.046875 13.71875 Z M 74.578125 23.578125 C 74.554688 23.585938 74.523438 23.59375 74.488281 23.625 L 74.492188 23.796875 C 74.5 23.816406 74.507812 23.847656 74.539062 23.882812 L 74.707031 23.878906 C 74.730469 23.871094 74.765625 23.863281 74.796875 23.828125 L 74.792969 23.664062 C 74.789062 23.640625 74.777344 23.605469 74.746094 23.574219 Z M 72.308594 23.945312 L 72.320312 24.023438 C 72.320312 24.015625 72.324219 24.011719 72.328125 24.007812 L 72.34375 24.183594 L 72.429688 24.238281 L 72.589844 24.203125 C 72.605469 24.175781 72.621094 24.167969 72.660156 24.148438 L 72.6875 23.957031 C 72.542969 23.832031 72.40625 23.835938 72.308594 23.945312 Z M 74.597656 20.625 L 74.765625 20.617188 C 74.785156 20.613281 74.820312 20.601562 74.851562 20.570312 L 74.847656 20.402344 C 74.84375 20.382812 74.832031 20.347656 74.804688 20.316406 L 74.632812 20.316406 C 74.613281 20.324219 74.578125 20.335938 74.546875 20.367188 L 74.550781 20.53125 C 74.554688 20.554688 74.566406 20.589844 74.597656 20.625 Z M 73.605469 22.246094 C 73.675781 22.289062 73.785156 22.269531 73.839844 22.195312 C 73.886719 22.132812 73.902344 22.023438 73.789062 21.925781 L 73.628906 21.9375 C 73.5625 22.015625 73.535156 22.082031 73.542969 22.144531 Z M 67.691406 2.3125 L 67.507812 2.222656 C 67.460938 2.222656 67.320312 2.210938 67.273438 2.40625 L 67.382812 2.570312 C 67.394531 2.601562 67.417969 2.65625 67.480469 2.695312 L 67.519531 2.71875 L 67.664062 2.671875 C 67.734375 2.550781 67.714844 2.445312 67.699219 2.371094 C 67.695312 2.351562 67.691406 2.332031 67.691406 2.3125 Z M 61.773438 11.742188 C 61.765625 11.699219 61.742188 11.660156 61.691406 11.628906 C 61.6875 11.628906 61.6875 11.625 61.6875 11.625 L 61.613281 11.613281 C 61.53125 11.628906 61.464844 11.679688 61.429688 11.757812 C 61.390625 11.839844 61.394531 11.941406 61.4375 12.019531 L 61.644531 11.992188 C 61.648438 11.984375 61.671875 11.960938 61.683594 11.945312 C 61.726562 11.890625 61.785156 11.824219 61.773438 11.742188 Z M 63.253906 1.441406 C 63.238281 1.453125 63.183594 1.464844 63.152344 1.46875 C 63.066406 1.488281 62.964844 1.507812 62.90625 1.597656 C 62.875 1.652344 62.867188 1.71875 62.882812 1.792969 L 63.042969 1.867188 C 63.109375 1.835938 63.175781 1.816406 63.242188 1.808594 C 63.269531 1.875 63.320312 1.933594 63.371094 1.96875 C 63.480469 2.039062 63.601562 2.023438 63.675781 1.929688 L 63.628906 1.75 C 63.554688 1.722656 63.539062 1.703125 63.519531 1.625 C 63.507812 1.570312 63.484375 1.496094 63.417969 1.429688 Z M 55.957031 9.476562 L 55.957031 9.480469 L 55.960938 9.480469 C 55.957031 9.480469 55.957031 9.480469 55.957031 9.476562 Z M 55.757812 9.671875 C 55.757812 9.667969 55.785156 9.664062 55.800781 9.644531 C 55.800781 9.640625 55.796875 9.640625 55.796875 9.636719 L 55.640625 9.660156 C 55.574219 9.605469 55.574219 9.546875 55.578125 9.515625 C 55.59375 9.429688 55.675781 9.398438 55.734375 9.378906 C 55.75 9.375 55.773438 9.363281 55.78125 9.359375 C 55.78125 9.359375 55.773438 9.367188 55.765625 9.382812 L 55.945312 9.355469 C 56.007812 9.414062 55.992188 9.488281 55.984375 9.519531 C 55.984375 9.519531 55.976562 9.5 55.964844 9.488281 C 55.960938 9.492188 55.960938 9.496094 55.960938 9.496094 L 55.976562 9.648438 C 55.898438 9.734375 55.792969 9.6875 55.757812 9.671875 Z M 55.148438 8.207031 C 55.171875 8.171875 55.183594 8.136719 55.183594 8.101562 C 55.1875 8.042969 55.160156 7.992188 55.117188 7.964844 L 55.085938 7.949219 L 55.007812 7.96875 C 55.023438 7.972656 55.039062 7.976562 55.050781 7.984375 C 55.054688 7.984375 55.054688 7.988281 55.054688 7.988281 L 54.878906 8.003906 L 54.824219 8.089844 L 54.816406 8.195312 C 54.832031 8.234375 54.855469 8.265625 54.886719 8.285156 C 54.96875 8.339844 55.082031 8.304688 55.148438 8.207031 Z M 54.570312 8.355469 C 54.53125 8.367188 54.484375 8.398438 54.453125 8.476562 L 54.496094 8.609375 L 54.503906 8.613281 C 54.601562 8.679688 54.710938 8.675781 54.808594 8.605469 L 54.773438 8.402344 C 54.722656 8.371094 54.652344 8.328125 54.570312 8.355469 Z M 60.984375 3.164062 C 60.941406 3.214844 60.914062 3.300781 60.984375 3.394531 L 61.164062 3.390625 C 61.152344 3.40625 61.125 3.402344 61.140625 3.417969 C 61.257812 3.453125 61.339844 3.425781 61.386719 3.328125 L 61.375 3.214844 C 61.292969 3.089844 61.078125 3.066406 60.984375 3.164062 Z M 62.320312 2.632812 C 62.367188 2.636719 62.507812 2.644531 62.550781 2.449219 L 62.503906 2.328125 L 62.378906 2.246094 L 62.214844 2.289062 C 62.210938 2.304688 62.199219 2.320312 62.1875 2.335938 C 62.148438 2.390625 62.070312 2.511719 62.164062 2.613281 Z M 54.585938 13.34375 L 54.765625 13.304688 C 54.761719 13.3125 54.75 13.332031 54.726562 13.339844 C 54.699219 13.347656 54.679688 13.34375 54.675781 13.339844 L 54.703125 13.359375 C 54.734375 13.378906 54.800781 13.425781 54.878906 13.390625 C 54.960938 13.355469 54.976562 13.265625 54.980469 13.234375 L 54.953125 13.136719 L 54.914062 13.105469 C 54.808594 13.039062 54.628906 13.058594 54.5625 13.144531 C 54.523438 13.195312 54.511719 13.28125 54.585938 13.34375 Z M 55.347656 11.515625 L 55.324219 11.339844 C 55.339844 11.351562 55.347656 11.363281 55.347656 11.363281 C 55.34375 11.359375 55.339844 11.339844 55.335938 11.324219 C 55.328125 11.277344 55.316406 11.207031 55.257812 11.167969 C 55.222656 11.144531 55.148438 11.121094 55.054688 11.195312 L 55.058594 11.246094 C 55.015625 11.261719 54.945312 11.292969 54.933594 11.375 C 54.925781 11.433594 54.953125 11.484375 55.019531 11.53125 L 55.167969 11.5 C 55.171875 11.503906 55.171875 11.503906 55.171875 11.507812 C 55.15625 11.527344 55.125 11.535156 55.128906 11.535156 C 55.164062 11.550781 55.265625 11.597656 55.347656 11.515625 Z M 59.492188 4.613281 L 59.496094 4.699219 C 59.515625 4.714844 59.535156 4.730469 59.550781 4.742188 C 59.671875 4.820312 59.792969 4.808594 59.878906 4.714844 L 59.867188 4.550781 C 59.804688 4.5 59.75 4.46875 59.691406 4.460938 L 59.6875 4.371094 C 59.542969 4.246094 59.402344 4.25 59.304688 4.359375 L 59.316406 4.519531 C 59.378906 4.574219 59.433594 4.601562 59.492188 4.613281 Z M 54.617188 12.949219 L 54.800781 12.894531 C 54.847656 12.890625 54.960938 12.886719 55.015625 12.742188 L 54.96875 12.605469 L 54.847656 12.523438 L 54.675781 12.589844 C 54.671875 12.597656 54.648438 12.621094 54.636719 12.636719 C 54.59375 12.691406 54.535156 12.757812 54.546875 12.839844 C 54.554688 12.882812 54.578125 12.921875 54.617188 12.949219 Z M 74.324219 2.875 C 74.347656 2.871094 74.382812 2.859375 74.414062 2.828125 L 74.410156 2.660156 C 74.40625 2.640625 74.394531 2.605469 74.359375 2.570312 L 74.195312 2.574219 C 74.171875 2.582031 74.136719 2.59375 74.105469 2.625 L 74.109375 2.792969 C 74.113281 2.8125 74.125 2.847656 74.15625 2.878906 Z M 70.527344 8.195312 L 70.488281 8.054688 L 70.402344 8 L 70.253906 8.023438 C 70.234375 8.027344 70.199219 8.039062 70.167969 8.070312 L 70.132812 8.125 C 70.113281 8.203125 70.152344 8.289062 70.238281 8.34375 C 70.332031 8.40625 70.429688 8.410156 70.488281 8.351562 C 70.511719 8.332031 70.546875 8.285156 70.523438 8.203125 C 70.527344 8.199219 70.527344 8.199219 70.527344 8.195312 Z M 65.855469 16.929688 L 65.746094 16.773438 C 65.757812 16.78125 65.765625 16.792969 65.769531 16.789062 C 65.773438 16.746094 65.777344 16.609375 65.632812 16.566406 L 65.515625 16.59375 C 65.382812 16.722656 65.433594 16.84375 65.457031 16.910156 C 65.464844 16.925781 65.472656 16.945312 65.472656 16.953125 L 65.675781 17.03125 C 65.664062 17.046875 65.640625 17.054688 65.640625 17.054688 C 65.75 17.070312 65.824219 17.027344 65.855469 16.929688 Z M 64.746094 16.230469 L 64.9375 16.246094 C 64.925781 16.261719 64.898438 16.257812 64.914062 16.273438 C 65.027344 16.308594 65.109375 16.28125 65.15625 16.183594 L 65.136719 16.054688 C 65.132812 16.054688 65.132812 16.035156 65.128906 16.027344 C 65.117188 15.964844 65.082031 15.855469 64.9375 15.804688 L 64.8125 15.847656 C 64.683594 16.015625 64.707031 16.148438 64.746094 16.230469 Z M 71.011719 6.730469 L 70.933594 6.742188 C 70.828125 6.796875 70.808594 6.878906 70.808594 6.921875 C 70.804688 7 70.847656 7.078125 70.921875 7.128906 C 71.011719 7.1875 71.117188 7.179688 71.179688 7.113281 L 71.195312 6.964844 C 71.199219 6.914062 71.191406 6.773438 71.011719 6.730469 Z M 64.109375 20.671875 L 64.050781 20.617188 C 63.894531 20.511719 63.773438 20.640625 63.71875 20.699219 L 63.691406 20.726562 L 63.742188 20.933594 C 63.753906 20.949219 63.765625 20.976562 63.796875 20.996094 C 63.816406 21.011719 63.886719 21.046875 63.96875 20.976562 L 63.972656 20.933594 C 64.015625 20.925781 64.082031 20.910156 64.117188 20.84375 C 64.144531 20.792969 64.140625 20.734375 64.109375 20.671875 Z M 74.742188 2.320312 C 74.761719 2.332031 74.785156 2.34375 74.8125 2.351562 L 74.914062 2.261719 C 74.832031 2.230469 74.75 2.199219 74.667969 2.171875 C 74.664062 2.183594 74.664062 2.195312 74.664062 2.207031 C 74.671875 2.253906 74.699219 2.292969 74.742188 2.320312 Z M 73.070312 5.199219 C 73.117188 5.226562 73.164062 5.246094 73.214844 5.253906 L 73.328125 5.207031 C 73.445312 5.042969 73.488281 4.898438 73.457031 4.769531 L 73.253906 4.726562 C 73.269531 4.707031 73.304688 4.703125 73.304688 4.699219 C 73.289062 4.6875 73.269531 4.671875 73.25 4.65625 C 73.199219 4.613281 73.144531 4.574219 73.097656 4.5625 L 72.972656 4.613281 C 72.84375 4.824219 72.886719 5.074219 73.070312 5.199219 Z M 70.621094 1.84375 L 70.632812 2.007812 C 70.648438 2.023438 70.667969 2.035156 70.683594 2.046875 C 70.804688 2.125 70.929688 2.117188 71.011719 2.019531 L 71 1.859375 C 70.859375 1.734375 70.714844 1.734375 70.621094 1.84375 Z M 64.578125 12.113281 C 64.582031 12.078125 64.570312 12.027344 64.511719 11.984375 L 64.386719 11.976562 C 64.304688 12.003906 64.179688 12.046875 64.152344 12.164062 C 64.144531 12.210938 64.144531 12.28125 64.222656 12.363281 L 64.417969 12.296875 C 64.421875 12.28125 64.449219 12.265625 64.472656 12.25 C 64.515625 12.226562 64.574219 12.1875 64.578125 12.113281 Z M 65.261719 11.085938 C 65.246094 10.933594 65.109375 10.789062 64.882812 10.667969 L 64.742188 10.691406 C 64.671875 10.773438 64.640625 10.851562 64.648438 10.929688 C 64.65625 10.972656 64.679688 11.039062 64.757812 11.089844 C 64.828125 11.136719 64.925781 11.160156 65.011719 11.171875 C 65.050781 11.230469 65.152344 11.261719 65.230469 11.171875 Z M 68.597656 5.011719 L 68.609375 5.171875 C 68.628906 5.1875 68.644531 5.203125 68.664062 5.214844 C 68.78125 5.292969 68.90625 5.28125 68.988281 5.1875 L 68.976562 5.027344 C 68.835938 4.902344 68.695312 4.902344 68.597656 5.011719 Z M 69.007812 4.023438 C 68.941406 4.101562 68.914062 4.167969 68.921875 4.230469 L 68.984375 4.332031 C 69.054688 4.378906 69.164062 4.355469 69.21875 4.285156 C 69.265625 4.21875 69.28125 4.113281 69.167969 4.011719 Z M 83.167969 36.105469 C 83.160156 36.09375 83.152344 36.082031 83.144531 36.070312 L 82.957031 36.046875 C 82.882812 36.136719 82.851562 36.21875 82.863281 36.292969 C 82.871094 36.335938 82.894531 36.398438 82.96875 36.449219 C 82.980469 36.457031 82.992188 36.464844 83.007812 36.46875 L 83.132812 36.453125 C 83.304688 36.300781 83.207031 36.160156 83.167969 36.105469 Z M 88.585938 28.382812 L 88.71875 28.398438 C 88.734375 28.386719 88.753906 28.382812 88.769531 28.378906 C 88.820312 28.359375 88.902344 28.332031 88.925781 28.25 C 88.949219 28.160156 88.882812 28.082031 88.855469 28.058594 L 88.695312 28.046875 C 88.6875 28.054688 88.675781 28.0625 88.667969 28.066406 C 88.632812 28.089844 88.597656 28.121094 88.582031 28.167969 C 88.574219 28.175781 88.566406 28.183594 88.558594 28.191406 C 88.523438 28.238281 88.515625 28.316406 88.585938 28.382812 Z M 86.835938 26.886719 L 86.84375 27.066406 C 86.855469 27.089844 86.871094 27.140625 86.929688 27.179688 L 86.964844 27.199219 L 87.113281 27.140625 C 87.117188 27.132812 87.125 27.121094 87.128906 27.113281 C 87.15625 27.070312 87.230469 26.949219 87.128906 26.855469 L 86.960938 26.875 C 86.972656 26.855469 86.996094 26.847656 87 26.847656 C 86.96875 26.84375 86.894531 26.828125 86.835938 26.886719 Z M 80.164062 36.578125 L 80.171875 36.699219 C 80.191406 36.722656 80.203125 36.75 80.214844 36.777344 C 80.234375 36.816406 80.253906 36.855469 80.28125 36.890625 L 80.441406 36.914062 C 80.589844 36.804688 80.664062 36.691406 80.664062 36.582031 C 80.664062 36.527344 80.644531 36.449219 80.550781 36.382812 L 80.40625 36.394531 C 80.394531 36.40625 80.378906 36.410156 80.347656 36.421875 C 80.296875 36.445312 80.21875 36.476562 80.164062 36.578125 Z M 84.175781 30.945312 C 84.144531 31.015625 84.074219 31.179688 84.230469 31.28125 L 84.261719 31.296875 L 84.40625 31.257812 L 84.515625 31.089844 L 84.484375 30.933594 L 84.359375 30.851562 L 84.191406 30.90625 Z M 85.023438 30.285156 C 85.03125 30.25 85.039062 30.117188 84.898438 30.074219 L 84.800781 30.085938 C 84.742188 30.125 84.707031 30.191406 84.707031 30.265625 C 84.707031 30.34375 84.742188 30.417969 84.800781 30.457031 C 84.855469 30.492188 84.945312 30.496094 85.015625 30.421875 L 85 30.25 C 85.015625 30.265625 85.023438 30.285156 85.023438 30.285156 Z M 86.40625 23.191406 C 86.441406 23.136719 86.449219 23.066406 86.429688 23 C 86.410156 22.933594 86.367188 22.875 86.304688 22.835938 L 86.242188 22.933594 C 86.238281 22.929688 86.238281 22.925781 86.234375 22.925781 C 86.195312 22.980469 86.160156 23.035156 86.125 23.089844 C 86.144531 23.113281 86.160156 23.109375 86.175781 23.121094 L 86.109375 23.226562 C 86.242188 23.3125 86.355469 23.269531 86.40625 23.191406 Z M 86.238281 11.878906 L 86.074219 11.898438 C 85.96875 12.042969 86.070312 12.164062 86.117188 12.214844 C 86.128906 12.230469 86.148438 12.253906 86.152344 12.261719 C 86.152344 12.261719 86.148438 12.257812 86.152344 12.253906 L 86.34375 12.347656 C 86.476562 12.214844 86.429688 12.09375 86.402344 12.03125 C 86.398438 12.015625 86.386719 11.992188 86.390625 11.984375 L 86.203125 11.890625 C 86.214844 11.878906 86.238281 11.878906 86.238281 11.878906 Z M 83.421875 27.003906 C 83.484375 26.914062 83.472656 26.804688 83.386719 26.734375 L 83.238281 26.734375 C 83.222656 26.75 83.203125 26.757812 83.175781 26.769531 C 83.109375 26.800781 83.023438 26.839844 82.960938 26.96875 L 83.007812 27.117188 C 83.144531 27.195312 83.34375 27.121094 83.421875 27.003906 Z M 78.40625 39.203125 C 78.480469 39.117188 78.511719 39.035156 78.5 38.957031 C 78.492188 38.914062 78.46875 38.851562 78.390625 38.800781 L 78.355469 38.78125 L 78.214844 38.8125 C 78.101562 38.960938 78.171875 39.089844 78.207031 39.160156 L 78.320312 39.128906 L 78.21875 39.179688 Z M 78.914062 32.597656 C 78.933594 32.605469 78.964844 32.625 79 32.636719 L 78.925781 32.65625 C 78.828125 32.886719 78.945312 32.988281 78.984375 33.011719 C 79.074219 33.074219 79.191406 33.050781 79.25 32.964844 C 79.273438 32.925781 79.339844 32.792969 79.125 32.628906 C 79.160156 32.613281 79.1875 32.585938 79.203125 32.550781 L 79.179688 32.425781 C 79.175781 32.421875 79.167969 32.410156 79.160156 32.398438 C 79.140625 32.355469 79.097656 32.285156 79 32.25 L 78.90625 32.253906 C 78.84375 32.285156 78.804688 32.339844 78.800781 32.402344 C 78.796875 32.472656 78.839844 32.546875 78.914062 32.597656 Z M 79.960938 36.835938 L 79.925781 36.691406 L 79.800781 36.609375 L 79.640625 36.640625 L 79.53125 36.808594 L 79.554688 36.960938 L 79.585938 36.984375 C 79.664062 37.035156 79.730469 37.03125 79.773438 37.019531 C 79.847656 37 79.910156 36.9375 79.960938 36.835938 Z M 90.257812 20.589844 L 90.285156 20.746094 L 90.289062 20.75 C 90.28125 20.6875 90.277344 20.628906 90.269531 20.566406 Z M 87.589844 24.523438 C 87.472656 24.414062 87.375 24.417969 87.320312 24.433594 C 87.242188 24.457031 87.179688 24.515625 87.132812 24.617188 L 87.183594 24.761719 C 87.230469 24.789062 87.375 24.871094 87.515625 24.789062 L 87.523438 24.726562 C 87.546875 24.722656 87.574219 24.707031 87.597656 24.683594 Z M 80 36.140625 C 79.972656 36.121094 79.894531 36.085938 79.796875 36.152344 L 79.796875 36.339844 C 79.773438 36.324219 79.765625 36.285156 79.761719 36.292969 C 79.746094 36.324219 79.695312 36.429688 79.785156 36.511719 L 79.847656 36.539062 C 79.941406 36.550781 80.027344 36.496094 80.0625 36.402344 C 80.09375 36.3125 80.082031 36.195312 80 36.140625 Z M 79.363281 38.628906 C 79.367188 38.597656 79.363281 38.539062 79.296875 38.496094 L 79.246094 38.472656 C 79.136719 38.445312 79.042969 38.53125 79 38.625 C 78.949219 38.738281 78.988281 38.8125 79.039062 38.847656 C 79.078125 38.871094 79.140625 38.886719 79.234375 38.832031 L 79.234375 38.753906 C 79.234375 38.753906 79.238281 38.753906 79.242188 38.75 C 79.28125 38.738281 79.355469 38.710938 79.363281 38.628906 Z M 81.714844 32.652344 L 81.570312 32.710938 C 81.566406 32.722656 81.558594 32.730469 81.554688 32.742188 C 81.527344 32.78125 81.453125 32.90625 81.558594 33 L 81.640625 32.988281 C 81.632812 32.988281 81.625 32.988281 81.621094 32.976562 L 81.800781 32.953125 C 81.902344 32.765625 81.8125 32.691406 81.714844 32.652344 Z M 86.222656 17.789062 C 86.277344 17.738281 86.304688 17.671875 86.300781 17.601562 C 86.289062 17.457031 86.109375 17.339844 85.972656 17.386719 C 85.90625 17.40625 85.855469 17.460938 85.832031 17.535156 L 85.898438 17.679688 L 85.957031 17.699219 C 85.996094 17.714844 85.996094 17.714844 86.019531 17.742188 L 86.0625 17.789062 Z M 66.550781 38.175781 L 66.65625 38.175781 C 66.667969 38.195312 66.6875 38.21875 66.71875 38.238281 L 66.75 38.257812 L 66.894531 38.214844 L 67.003906 38.046875 L 66.988281 37.90625 L 66.953125 37.875 C 66.835938 37.800781 66.671875 37.847656 66.585938 37.933594 C 66.515625 38.003906 66.5 38.101562 66.550781 38.175781 Z M 85.371094 12.609375 C 85.359375 12.632812 85.347656 12.65625 85.335938 12.683594 C 85.289062 12.769531 85.191406 12.957031 85.371094 13.078125 L 85.375 13.078125 L 85.539062 13.027344 C 85.601562 12.882812 85.617188 12.742188 85.585938 12.621094 Z M 85.445312 12.082031 L 85.324219 12.132812 C 85.304688 12.160156 85.285156 12.171875 85.25 12.1875 L 85.269531 12.402344 C 85.28125 12.414062 85.296875 12.425781 85.3125 12.4375 C 85.335938 12.457031 85.359375 12.476562 85.378906 12.492188 C 85.429688 12.523438 85.480469 12.535156 85.527344 12.523438 C 85.554688 12.515625 85.597656 12.496094 85.628906 12.441406 L 85.625 12.316406 C 85.628906 12.265625 85.625 12.125 85.445312 12.082031 Z M 63.480469 21.339844 C 63.5 21.3125 63.519531 21.28125 63.539062 21.253906 C 63.550781 21.066406 63.25 21.246094 63.480469 21.339844 Z M 52.445312 20.800781 C 52.425781 20.777344 52.40625 20.777344 52.386719 20.765625 L 52.457031 20.660156 C 52.332031 20.578125 52.207031 20.621094 52.152344 20.710938 C 52.117188 20.757812 52.105469 20.820312 52.121094 20.878906 C 52.132812 20.941406 52.171875 21 52.234375 21.039062 L 52.292969 20.925781 C 52.308594 20.9375 52.3125 20.957031 52.335938 20.964844 C 52.375 20.910156 52.410156 20.855469 52.445312 20.800781 Z M 61.863281 2.398438 C 61.878906 2.371094 61.898438 2.34375 61.917969 2.316406 C 61.929688 2.128906 61.628906 2.308594 61.863281 2.398438 Z M 74.96875 20.914062 C 74.984375 20.726562 74.683594 20.910156 74.914062 21 C 74.933594 20.972656 74.953125 20.945312 74.96875 20.914062 Z M 63.28125 21.628906 C 63.316406 21.578125 63.363281 21.542969 63.417969 21.53125 C 63.476562 21.519531 63.535156 21.53125 63.585938 21.566406 L 63.519531 21.671875 C 63.53125 21.675781 63.539062 21.671875 63.550781 21.683594 C 63.566406 21.8125 63.515625 21.734375 63.441406 21.851562 C 63.425781 21.847656 63.425781 21.835938 63.417969 21.828125 L 63.347656 21.929688 C 63.242188 21.863281 63.214844 21.730469 63.28125 21.628906 " fill-opacity="1" fill-rule="nonzero"/></g></g></g><g fill="rgb(100%, 100%, 100%)" fill-opacity="1"><g transform="translate(8.405296, 29.355877)"><g><path d="M 5.492188 -2.308594 L 4.144531 -2.308594 L 4.144531 -13.480469 L 1.566406 -13.480469 L 1.566406 -2.308594 L 0.183594 -2.308594 C 0.0859375 -2.308594 0 -2.242188 0 -2.15625 L 0 -0.152344 C 0 -0.0859375 0.0859375 0 0.183594 0 L 5.492188 0 C 5.609375 0 5.679688 -0.0859375 5.679688 -0.152344 L 5.679688 -2.15625 C 5.679688 -2.242188 5.609375 -2.308594 5.492188 -2.308594 Z M 5.492188 -2.308594 "/></g></g></g><g fill="rgb(100%, 100%, 100%)" fill-opacity="1"><g transform="translate(14.368055, 29.355877)"><g><path d="M 11.152344 -13.480469 L 8.980469 -13.480469 C 8.863281 -13.480469 8.777344 -13.394531 8.777344 -13.328125 L 8.777344 -4.550781 L 2.5625 -13.429688 C 2.542969 -13.460938 2.441406 -13.480469 2.410156 -13.480469 L 0.167969 -13.480469 C 0.0859375 -13.480469 0 -13.394531 0 -13.328125 L 0 -3.234375 L 2.578125 -3.234375 L 2.578125 -8.929688 L 8.777344 -0.0507812 C 8.792969 -0.015625 8.894531 0 8.929688 0 L 11.152344 0 C 11.269531 0 11.339844 -0.0859375 11.339844 -0.152344 L 11.339844 -13.328125 C 11.339844 -13.394531 11.269531 -13.480469 11.152344 -13.480469 Z M 11.152344 -13.480469 "/></g></g></g><g fill="rgb(100%, 100%, 100%)" fill-opacity="1"><g transform="translate(26.276736, 29.355877)"><g><path d="M 5.492188 -2.308594 L 4.144531 -2.308594 L 4.144531 -13.480469 L 1.566406 -13.480469 L 1.566406 -2.308594 L 0.183594 -2.308594 C 0.0859375 -2.308594 0 -2.242188 0 -2.15625 L 0 -0.152344 C 0 -0.0859375 0.0859375 0 0.183594 0 L 5.492188 0 C 5.609375 0 5.679688 -0.0859375 5.679688 -0.152344 L 5.679688 -2.15625 C 5.679688 -2.242188 5.609375 -2.308594 5.492188 -2.308594 Z M 5.492188 -2.308594 "/></g></g></g><g fill="rgb(100%, 100%, 100%)" fill-opacity="1"><g transform="translate(32.239494, 29.355877)"><g><path d="M 5.492188 -2.308594 L 4.144531 -2.308594 L 4.144531 -13.480469 L 1.566406 -13.480469 L 1.566406 -2.308594 L 0.183594 -2.308594 C 0.0859375 -2.308594 0 -2.242188 0 -2.15625 L 0 -0.152344 C 0 -0.0859375 0.0859375 0 0.183594 0 L 5.492188 0 C 5.609375 0 5.679688 -0.0859375 5.679688 -0.152344 L 5.679688 -2.15625 C 5.679688 -2.242188 5.609375 -2.308594 5.492188 -2.308594 Z M 5.492188 -2.308594 "/></g></g></g><g fill="rgb(100%, 100%, 100%)" fill-opacity="1"><g transform="translate(38.202253, 29.355877)"><g><path d="M 6.402344 -2.511719 L 2.578125 -2.511719 L 2.578125 -5.542969 L 7.867188 -5.542969 C 7.96875 -5.542969 8.054688 -5.628906 8.054688 -5.695312 L 8.054688 -7.835938 C 8.054688 -7.917969 7.96875 -7.984375 7.867188 -7.984375 L 2.578125 -7.984375 L 2.578125 -11.035156 L 6.402344 -11.035156 L 6.402344 -13.480469 L 0.183594 -13.480469 C 0.0859375 -13.480469 0 -13.394531 0 -13.328125 L 0 -0.152344 C 0 -0.0859375 0.0859375 0 0.183594 0 L 6.402344 0 Z M 6.402344 -2.511719 "/></g></g></g><g fill="rgb(100%, 100%, 100%)" fill-opacity="1"><g transform="translate(46.657922, 29.355877)"><g><path d="M 9.199219 -0.21875 C 8.355469 -2.089844 7.445312 -3.941406 6.605469 -5.847656 C 7.953125 -6.335938 9.082031 -7.414062 9.082031 -9.46875 C 9.082031 -13.445312 5.289062 -13.480469 4.53125 -13.480469 L 0.167969 -13.480469 C 0.0859375 -13.480469 0 -13.394531 0 -13.328125 L 0 -11.035156 L 4.53125 -11.035156 C 4.9375 -11.035156 6.519531 -10.953125 6.519531 -9.46875 C 6.519531 -7.984375 5.089844 -7.917969 4.53125 -7.917969 L 0 -7.917969 L 0 -0.152344 C 0 -0.0859375 0.0859375 0 0.167969 0 L 2.375 0 C 2.476562 0 2.5625 -0.0859375 2.5625 -0.152344 L 2.5625 -5.441406 L 4.011719 -5.441406 L 6.46875 -0.101562 C 6.488281 -0.0507812 6.585938 0 6.636719 0 L 9.046875 0 C 9.183594 0 9.25 -0.101562 9.199219 -0.21875 Z M 9.199219 -0.21875 "/></g></g></g><g fill="rgb(100%, 100%, 100%)" fill-opacity="1"><g transform="translate(56.34319, 29.355877)"><g><path d="M 5.492188 -2.308594 L 4.144531 -2.308594 L 4.144531 -13.480469 L 1.566406 -13.480469 L 1.566406 -2.308594 L 0.183594 -2.308594 C 0.0859375 -2.308594 0 -2.242188 0 -2.15625 L 0 -0.152344 C 0 -0.0859375 0.0859375 0 0.183594 0 L 5.492188 0 C 5.609375 0 5.679688 -0.0859375 5.679688 -0.152344 L 5.679688 -2.15625 C 5.679688 -2.242188 5.609375 -2.308594 5.492188 -2.308594 Z M 5.492188 -2.308594 "/></g></g></g><g fill="rgb(100%, 100%, 100%)" fill-opacity="1"><g transform="translate(62.305949, 29.355877)"><g><path d="M 7.75 -6.707031 C 7.75 -7.414062 7.195312 -7.984375 6.488281 -7.984375 C 5.777344 -7.984375 5.222656 -7.414062 5.222656 -6.707031 C 5.222656 -6.015625 5.777344 -5.441406 6.488281 -5.441406 C 7.195312 -5.441406 7.75 -6.015625 7.75 -6.707031 Z M 12.972656 -6.757812 C 12.972656 -10.109375 10.800781 -13.480469 6.503906 -13.480469 C 2.140625 -13.480469 0 -10.109375 0 -6.757812 C 0 -3.386719 2.140625 0 6.503906 0 C 10.800781 0 12.972656 -3.386719 12.972656 -6.757812 Z M 10.445312 -6.707031 C 10.445312 -4.53125 9.113281 -2.359375 6.503906 -2.359375 C 3.859375 -2.359375 2.542969 -4.53125 2.542969 -6.707031 C 2.542969 -8.914062 3.859375 -11.101562 6.503906 -11.101562 C 9.113281 -11.101562 10.445312 -8.914062 10.445312 -6.707031 Z M 10.445312 -6.707031 "/></g></g></g><g fill="rgb(100%, 100%, 100%)" fill-opacity="1"><g transform="translate(75.915861, 29.355877)"><g><path d="M 5.492188 -2.308594 L 4.144531 -2.308594 L 4.144531 -13.480469 L 1.566406 -13.480469 L 1.566406 -2.308594 L 0.183594 -2.308594 C 0.0859375 -2.308594 0 -2.242188 0 -2.15625 L 0 -0.152344 C 0 -0.0859375 0.0859375 0 0.183594 0 L 5.492188 0 C 5.609375 0 5.679688 -0.0859375 5.679688 -0.152344 L 5.679688 -2.15625 C 5.679688 -2.242188 5.609375 -2.308594 5.492188 -2.308594 Z M 5.492188 -2.308594 "/></g></g></g><g fill="rgb(100%, 100%, 100%)" fill-opacity="1"><g transform="translate(81.87862, 29.355877)"><g><path d="M 5.492188 -2.308594 L 4.144531 -2.308594 L 4.144531 -13.480469 L 1.566406 -13.480469 L 1.566406 -2.308594 L 0.183594 -2.308594 C 0.0859375 -2.308594 0 -2.242188 0 -2.15625 L 0 -0.152344 C 0 -0.0859375 0.0859375 0 0.183594 0 L 5.492188 0 C 5.609375 0 5.679688 -0.0859375 5.679688 -0.152344 L 5.679688 -2.15625 C 5.679688 -2.242188 5.609375 -2.308594 5.492188 -2.308594 Z M 5.492188 -2.308594 "/></g></g></g><g fill="rgb(36.859131%, 9.01947%, 92.158508%)" fill-opacity="1"><g transform="translate(8.393591, 33.330332)"><g><path d="M 0.78125 0 L 2.730469 0 L 2.730469 -0.496094 L 0.78125 -0.496094 L 0.78125 -2.054688 L 2.730469 -2.054688 L 2.730469 -2.554688 L 0.78125 -2.554688 L 0.285156 -2.054688 L 0.285156 -0.496094 Z M 0.78125 0 "/></g></g></g><g fill="rgb(36.859131%, 9.01947%, 92.158508%)" fill-opacity="1"><g transform="translate(11.407561, 33.330332)"><g><path d="M 0.78125 0 L 2.421875 0 L 2.917969 -0.496094 L 2.917969 -3.050781 L 2.421875 -3.050781 L 2.421875 -2.554688 L 0.78125 -2.554688 L 0.285156 -2.054688 L 0.285156 -0.496094 Z M 0.78125 -0.496094 L 0.78125 -2.054688 L 2.421875 -2.054688 L 2.421875 -0.496094 Z M 0.78125 -0.496094 "/></g></g></g><g fill="rgb(36.859131%, 9.01947%, 92.158508%)" fill-opacity="1"><g transform="translate(14.607685, 33.330332)"><g/></g></g><g fill="rgb(36.859131%, 9.01947%, 92.158508%)" fill-opacity="1"><g transform="translate(16.823838, 33.330332)"><g><path d="M 0.285156 0 L 0.78125 0 L 0.78125 -1.027344 L 2.507812 -1.027344 L 2.507812 0 L 3.003906 0 L 3.003906 -2.054688 L 2.507812 -2.554688 L 0.78125 -2.554688 L 0.285156 -2.054688 Z M 0.78125 -1.523438 L 0.78125 -2.054688 L 2.507812 -2.054688 L 2.507812 -1.523438 Z M 0.78125 -1.523438 "/></g></g></g><g fill="rgb(36.859131%, 9.01947%, 92.158508%)" fill-opacity="1"><g transform="translate(20.11261, 33.330332)"><g><path d="M 0.78125 0 L 2.375 0 L 2.375 -0.496094 L 0.78125 -0.496094 L 0.78125 -2.554688 L 0.285156 -2.554688 L 0.285156 -0.496094 Z M 0.78125 0 "/></g></g></g><g fill="rgb(36.859131%, 9.01947%, 92.158508%)" fill-opacity="1"><g transform="translate(22.771995, 33.330332)"><g><path d="M 0.78125 0 L 2.421875 0 L 2.917969 -0.496094 L 2.917969 -2.054688 L 2.421875 -2.554688 L 0.78125 -2.554688 L 0.78125 -3.050781 L 0.285156 -3.050781 L 0.285156 -0.496094 Z M 0.78125 -0.496094 L 0.78125 -2.054688 L 2.421875 -2.054688 L 2.421875 -0.496094 Z M 0.78125 -0.496094 "/></g></g></g><g fill="rgb(36.859131%, 9.01947%, 92.158508%)" fill-opacity="1"><g transform="translate(25.972119, 33.330332)"><g><path d="M 0.78125 0 L 2.507812 0 L 3.003906 -0.496094 L 3.003906 -2.554688 L 2.507812 -2.554688 L 2.507812 -0.496094 L 0.78125 -0.496094 L 0.78125 -2.554688 L 0.285156 -2.554688 L 0.285156 -0.496094 Z M 0.78125 0 "/></g></g></g><g fill="rgb(36.859131%, 9.01947%, 92.158508%)" fill-opacity="1"><g transform="translate(29.26089, 33.330332)"><g><path d="M 0.285156 0 L 0.78125 0 L 0.78125 -2.054688 L 1.589844 -2.054688 L 1.589844 -0.683594 L 2.085938 -0.683594 L 2.085938 -2.054688 L 2.894531 -2.054688 L 2.894531 0 L 3.390625 0 L 3.390625 -2.054688 L 2.894531 -2.554688 L 0.78125 -2.554688 L 0.285156 -2.054688 Z M 0.285156 0 "/></g></g></g><g fill="rgb(36.859131%, 9.01947%, 92.158508%)" fill-opacity="1"><g transform="translate(32.935272, 33.330332)"><g/></g></g><g fill="rgb(36.859131%, 9.01947%, 92.158508%)" fill-opacity="1"><g transform="translate(35.151425, 33.330332)"><g><path d="M 0.285156 0 L 2.425781 0 L 2.425781 -0.00390625 L 2.917969 -0.496094 L 2.917969 -1.027344 L 2.421875 -1.523438 L 0.78125 -1.523438 L 0.78125 -2.054688 L 2.917969 -2.054688 L 2.917969 -2.554688 L 0.777344 -2.554688 L 0.777344 -2.546875 L 0.285156 -2.054688 L 0.285156 -1.523438 L 0.78125 -1.027344 L 2.421875 -1.027344 L 2.421875 -0.496094 L 0.285156 -0.496094 Z M 0.285156 0 "/></g></g></g><g fill="rgb(36.859131%, 9.01947%, 92.158508%)" fill-opacity="1"><g transform="translate(38.351549, 33.330332)"><g><path d="M 0.285156 0 L 0.78125 0 L 0.78125 -1.027344 L 2.507812 -1.027344 L 2.507812 0 L 3.003906 0 L 3.003906 -2.554688 L 2.507812 -2.554688 L 2.507812 -1.523438 L 0.78125 -1.523438 L 0.78125 -2.554688 L 0.285156 -2.554688 Z M 0.285156 0 "/></g></g></g><g fill="rgb(36.859131%, 9.01947%, 92.158508%)" fill-opacity="1"><g transform="translate(41.640321, 33.330332)"><g><path d="M 0.78125 0 L 2.507812 0 L 3.003906 -0.496094 L 3.003906 -2.054688 L 2.507812 -2.554688 L 0.78125 -2.554688 L 0.285156 -2.054688 L 0.285156 -0.496094 Z M 0.78125 -0.496094 L 0.78125 -2.054688 L 2.507812 -2.054688 L 2.507812 -0.496094 Z M 0.78125 -0.496094 "/></g></g></g><g fill="rgb(36.859131%, 9.01947%, 92.158508%)" fill-opacity="1"><g transform="translate(44.929092, 33.330332)"><g><path d="M 0.285156 0.496094 L 0.78125 0.496094 L 0.78125 0 L 2.421875 0 L 2.917969 -0.496094 L 2.917969 -2.054688 L 2.421875 -2.554688 L 0.78125 -2.554688 L 0.285156 -2.054688 Z M 0.78125 -0.496094 L 0.78125 -2.054688 L 2.421875 -2.054688 L 2.421875 -0.496094 Z M 0.78125 -0.496094 "/></g></g></g></svg>